<?xml version="1.0" standalone="no"?>
<!DOCTYPE svg PUBLIC "-//W3C//DTD SVG 20010904//EN"
 "http://www.w3.org/TR/2001/REC-SVG-20010904/DTD/svg10.dtd">
<svg version="1.0" xmlns="http://www.w3.org/2000/svg"
 width="275.000000pt" height="275.000000pt" viewBox="0 0 275.000000 275.000000"
 preserveAspectRatio="xMidYMid meet">
<metadata>
Created by potrace 1.11, written by Peter Selinger 2001-2013
</metadata>
<g transform="translate(0.000000,275.000000) scale(0.100000,-0.100000)"
fill="#000000" stroke="none">
<path d="M0 1375 l0 -1375 1375 0 1375 0 0 1375 0 1375 -1375 0 -1375 0 0
-1375z m1106 864 c18 -20 19 -42 22 -313 2 -160 6 -292 10 -294 7 -2 43 55
172 278 40 69 86 145 101 170 16 25 42 69 59 98 47 78 59 82 268 82 181 0 202
-4 202 -39 0 -24 -84 -164 -442 -740 -39 -63 -58 -105 -58 -126 0 -25 29 -72
136 -221 311 -431 396 -550 413 -582 7 -12 9 -32 6 -42 -6 -19 -16 -20 -210
-20 -121 0 -213 4 -227 10 -26 12 -31 18 -310 419 -51 74 -99 136 -106 139 -9
3 -12 -45 -13 -205 0 -239 -9 -340 -30 -354 -8 -5 -80 -9 -161 -9 -116 0 -150
3 -161 15 -25 24 -29 177 -25 966 3 718 4 748 22 768 18 20 29 21 166 21 137
0 148 -1 166 -21z"/>
</g>
</svg>
